<svg width="669" height="690" viewBox="0 0 669 690" fill="none" xmlns="http://www.w3.org/2000/svg">
<path d="M586.99 690C558.128 685.482 530.377 681.638 503.738 678.47L513.996 657.954C510.435 656.767 495.005 668.636 495.005 668.636L508.061 609.291C490.258 611.665 481.949 672.197 481.949 672.197L461.772 652.019L471.705 674.864C390.187 666.298 319.845 663.625 260.714 664.238L269.494 646.678C265.934 645.492 250.504 657.36 250.504 657.36L263.56 598.016C245.757 600.39 237.448 660.921 237.448 660.921L217.271 640.744L227.791 664.94C187.287 666.117 146.87 669.371 106.7 674.691C115.461 647.398 146.057 621.16 146.057 621.16C122.532 628.479 110.293 640.403 103.958 651.455C102.677 595.382 111.303 539.523 129.44 486.448C129.44 486.448 81.9644 593.268 89.0858 664.482L89.9893 677.132C48.686 683.575 27.9604 690 27.9604 690H586.99Z" fill="#3F3D56"/>
<path d="M16.262 689.413L0.280273 672.279L17.4146 656.297L33.3963 673.432L16.262 689.413ZM2.82764 672.368L16.3506 686.866L30.8489 673.343L17.3259 658.845L2.82764 672.368Z" fill="#3F3D56"/>
<path d="M480.733 158.759V236.714C480.731 237.434 480.444 238.124 479.935 238.633C479.425 239.143 478.735 239.43 478.015 239.432H476.08V645.526C476.08 656.764 471.615 667.541 463.669 675.487C455.723 683.434 444.946 687.898 433.708 687.898H179.961C174.397 687.898 168.888 686.802 163.748 684.672C158.608 682.542 153.938 679.421 150.005 675.486C146.071 671.551 142.951 666.88 140.823 661.74C138.694 656.599 137.599 651.09 137.6 645.526V253.674H136.2C135.692 253.675 135.204 253.474 134.844 253.116C134.483 252.758 134.279 252.271 134.277 251.763V207.397C134.277 207.145 134.327 206.895 134.423 206.662C134.52 206.428 134.662 206.216 134.84 206.038C135.019 205.859 135.231 205.717 135.464 205.621C135.697 205.524 135.947 205.475 136.2 205.475H137.6V188.763H136.188C135.655 188.761 135.144 188.548 134.768 188.169C134.392 187.791 134.181 187.279 134.182 186.745V142.985C134.183 142.453 134.395 141.944 134.771 141.568C135.147 141.192 135.656 140.98 136.188 140.979H137.6V118.167H136.164C135.93 118.167 135.699 118.121 135.483 118.032C135.266 117.943 135.07 117.812 134.905 117.646C134.739 117.481 134.608 117.284 134.519 117.068C134.429 116.852 134.384 116.62 134.384 116.387V92.5063C134.383 92.0327 134.57 91.578 134.903 91.242C135.237 90.906 135.691 90.7162 136.164 90.7141H137.6V42.3601C137.601 31.1256 142.064 20.3514 150.008 12.4074C157.952 4.46347 168.726 0.00040919 179.961 4.33543e-10H433.708C444.944 -5.07888e-05 455.72 4.46248 463.666 12.4062C471.612 20.35 476.077 31.1244 476.08 42.3601V156.041H478.015C478.735 156.043 479.425 156.329 479.935 156.839C480.444 157.348 480.731 158.038 480.733 158.759Z" fill="#3F3D56"/>
<path d="M319.06 21.7283H277.827C276.161 21.7283 274.81 23.079 274.81 24.7452V28.309C274.81 29.9752 276.161 31.326 277.827 31.326H319.06C320.726 31.326 322.077 29.9752 322.077 28.309V24.7452C322.077 23.079 320.726 21.7283 319.06 21.7283Z" fill="#E6E8EC"/>
<path d="M334.668 31.971C337.674 31.971 340.111 29.5337 340.111 26.5271C340.111 23.5206 337.674 21.0833 334.668 21.0833C331.661 21.0833 329.224 23.5206 329.224 26.5271C329.224 29.5337 331.661 31.971 334.668 31.971Z" fill="#E6E8EC"/>
<path d="M455.791 50.7403V649.04C455.794 652.93 454.951 656.775 453.32 660.306C451.688 663.838 449.307 666.972 446.343 669.491C441.479 673.636 435.298 675.912 428.907 675.912H186.008C181.686 675.918 177.427 674.88 173.593 672.885C172.693 672.424 171.821 671.909 170.982 671.342C167.331 668.879 164.341 665.558 162.274 661.669C160.207 657.781 159.125 653.444 159.125 649.04V50.7403C159.125 47.2099 159.82 43.714 161.171 40.4524C162.522 37.1907 164.502 34.2271 166.999 31.7307C169.495 29.2343 172.459 27.2541 175.72 25.9032C178.982 24.5523 182.478 23.857 186.008 23.8572H222.363V28.5217C222.363 34.3923 224.695 40.0226 228.846 44.1738C232.998 48.325 238.628 50.6571 244.499 50.6572H368.031C373.902 50.6571 379.532 48.325 383.683 44.1738C387.835 40.0226 390.167 34.3924 390.167 28.5217V23.8572H428.907C432.438 23.856 435.934 24.5506 439.196 25.9012C442.459 27.2518 445.423 29.2319 447.919 31.7285C450.416 34.225 452.396 37.1891 453.746 40.4512C455.097 43.7133 455.792 47.2096 455.791 50.7403Z" fill="#408A60"/>
<path opacity="0.3" d="M455.791 563.394V649.04C455.794 652.93 454.951 656.775 453.32 660.306C451.688 663.838 449.307 666.972 446.343 669.49C441.479 673.636 435.298 675.912 428.907 675.912H186.008C181.686 675.918 177.427 674.88 173.593 672.885C172.693 672.424 171.821 671.908 170.982 671.342C167.331 668.879 164.341 665.557 162.274 661.669C160.207 657.781 159.125 653.444 159.125 649.04V563.43C199.855 526.818 252.685 506.561 307.451 506.554C362.217 506.548 415.052 526.792 455.791 563.394Z" fill="white"/>
<path opacity="0.3" d="M441.345 672.861C437.509 674.876 433.239 675.923 428.907 675.912H186.008C181.686 675.918 177.427 674.88 173.593 672.885C184.589 646.439 203.172 623.842 226.996 607.944C250.821 592.047 278.82 583.562 307.461 583.56C336.103 583.557 364.103 592.037 387.931 607.93C411.758 623.823 430.344 646.417 441.345 672.861Z" fill="white"/>
<path opacity="0.3" d="M388.481 674.297C386.16 675.516 383.576 676.15 380.954 676.143H233.97C231.355 676.147 228.777 675.518 226.458 674.311C233.112 658.308 244.356 644.634 258.773 635.014C273.19 625.394 290.133 620.26 307.465 620.258C324.796 620.257 341.74 625.388 356.159 635.006C370.577 644.623 381.824 658.295 388.481 674.297Z" fill="white"/>
<path d="M369.249 255.479C344.883 255.479 318.143 250.839 297.268 235.183C268.204 213.385 232.396 214.548 207.475 219.364C190.922 222.589 174.855 227.941 159.673 235.286L158.576 233.181C173.942 225.74 190.206 220.317 206.963 217.045C232.373 212.127 268.915 210.952 298.692 233.284C354.476 275.122 454.364 237.546 455.365 237.163L456.216 239.379C437.484 246.055 418.111 250.771 398.407 253.452C388.743 254.77 379.002 255.447 369.249 255.479Z" fill="white"/>
<path opacity="0.3" d="M159.113 234.234C159.113 234.234 241.009 214.398 297.98 241.557C354.951 268.715 455.838 241.355 455.838 241.355" fill="white"/>
<path opacity="0.3" d="M236.429 265.047C226.536 265.002 216.669 264.017 206.963 262.104C190.206 258.833 173.942 253.409 158.576 245.968L159.673 243.863C174.855 251.209 190.922 256.56 207.475 259.785C232.395 264.6 268.203 265.764 297.268 243.966C327.019 221.653 368.692 221.716 398.407 225.698C418.111 228.378 437.484 233.094 456.216 239.771L455.365 241.987C454.362 241.603 354.477 204.026 298.692 245.865C279.165 260.511 256.727 265.047 236.429 265.047Z" fill="white"/>
<path opacity="0.3" d="M236.832 255.489C195.725 255.489 159.22 240.741 158.672 240.516L159.576 238.321C160.389 238.656 241.577 271.434 297.376 238.397C354.139 204.785 455.121 234.788 456.134 235.095L455.446 237.367C454.443 237.063 354.449 207.361 298.585 240.439C279.52 251.728 257.588 255.489 236.832 255.489Z" fill="white"/>
<path opacity="0.3" d="M159.125 237.593C159.125 237.593 241.009 264.751 297.98 237.593C354.952 210.434 455.79 235.027 455.79 235.027" fill="white"/>
<path d="M476.928 310.253V344.855C476.928 344.855 479.696 383.608 494.921 402.985C494.921 402.985 519.834 438.278 523.294 430.666L519.032 405.604L504.609 391.912L496.997 349.007L494.921 310.253H476.928Z" fill="#FFB8B8"/>
<path d="M629.866 623.048V648.653L609.106 656.265V626.508L629.866 623.048Z" fill="#FFB8B8"/>
<path d="M587.653 620.28L601.493 651.421L582.117 659.725L577.964 629.277L587.653 620.28Z" fill="#FFB8B8"/>
<path d="M622.254 381.532C622.254 381.532 649.935 631.352 639.555 632.044C629.174 632.737 609.106 645.885 609.106 636.889C609.106 627.892 593.189 510.94 593.189 510.94L577.964 450.734V533.777L593.881 627.892C593.881 627.892 578.656 647.961 567.584 636.197L544.055 544.157C544.055 544.157 512.914 404.369 514.298 393.296C514.298 393.296 585.577 332.398 622.254 381.532Z" fill="#2F2E41"/>
<path d="M616.718 650.037C616.718 650.037 622.254 638.273 634.711 645.885L645.091 658.342C645.091 658.342 671.854 680.505 652.863 685.253C633.29 690.146 621.562 684.94 621.562 684.94C621.562 684.94 618.102 682.864 615.334 682.864C612.566 682.864 606.337 678.02 606.337 676.636C606.337 675.252 608.414 650.729 608.414 650.729C609.198 650.347 610.078 650.209 610.942 650.332C611.805 650.456 612.612 650.835 613.258 651.421C615.334 653.497 616.718 650.037 616.718 650.037Z" fill="#2F2E41"/>
<path d="M575.888 645.885C575.888 645.885 589.037 635.505 595.265 647.269C595.265 647.269 599.186 648.653 599.648 647.269C600.109 645.885 603.569 645.193 603.569 652.805C603.569 660.417 607.327 679.404 603.867 680.096C600.407 680.788 596.947 682.864 597.639 685.632C598.331 688.4 593.881 688.79 577.964 688.098C562.048 687.406 561.355 681.178 561.355 681.178C561.355 681.178 561.355 672.182 565.508 667.338C569.66 662.494 575.888 645.885 575.888 645.885Z" fill="#2F2E41"/>
<path d="M550.283 192.609C550.283 192.609 546.823 218.214 568.968 227.211C591.113 236.207 519.834 265.964 512.913 248.663C505.993 231.363 514.297 225.827 514.297 225.827C514.297 225.827 521.218 218.906 514.99 200.222L550.283 192.609Z" fill="#FFB8B8"/>
<path d="M528.138 210.602C544.955 210.602 558.587 196.969 558.587 180.153C558.587 163.336 544.955 149.704 528.138 149.704C511.322 149.704 497.689 163.336 497.689 180.153C497.689 196.969 511.322 210.602 528.138 210.602Z" fill="#FFB8B8"/>
<path d="M563.432 235.515C563.432 235.515 542.671 246.587 522.602 238.283C502.533 229.979 503.225 265.964 503.225 265.964L513.605 292.953L585.576 286.033L580.732 244.511L563.432 235.515Z" fill="#F2F2F2"/>
<path d="M553.117 211.836C556.803 212.618 560.267 214.219 563.25 216.521C566.233 218.823 568.661 221.767 570.352 225.134L603.57 235.515L611.874 247.279L602.185 332.398C602.185 332.398 620.178 349.699 620.178 359.387C620.178 369.075 642.323 402.293 631.251 398.14C620.178 393.988 600.109 379.456 600.109 379.456C600.109 379.456 549.591 381.532 533.675 395.372C517.758 409.213 511.53 405.061 511.53 405.061C511.53 405.061 494.921 333.09 494.229 322.018C493.537 310.945 474.16 244.511 474.16 244.511L508.762 225.134L517.575 215.135L541.979 254.199L564.124 227.211C564.124 227.211 553.183 218.606 553.117 211.836Z" fill="#3F3D56"/>
<path d="M622.254 300.565L626.406 322.71C626.406 322.71 645.091 391.912 642.323 415.441C642.323 415.441 644.399 468.035 632.634 461.807C620.87 455.578 627.098 417.517 627.098 417.517L610.49 349.007L601.493 308.869L622.254 300.565Z" fill="#FFB8B8"/>
<path d="M604.953 243.127L611.874 247.279C611.874 247.279 638.171 301.949 631.943 306.101C625.714 310.253 598.725 319.25 598.725 319.25L604.953 243.127Z" fill="#3F3D56"/>
<path d="M490.768 244.512L474.505 244.165L470.7 250.739L475.544 317.866L500.457 323.402L490.768 244.512Z" fill="#3F3D56"/>
<path d="M552.933 154.401L558.422 152.405C558.422 152.405 546.946 140.93 530.98 141.928L535.47 137.437C535.47 137.437 524.494 133.446 514.515 143.923C509.269 149.431 503.2 155.905 499.417 163.198H493.539L495.992 168.104L487.406 173.011L496.219 172.129C495.384 176.365 495.671 180.745 497.052 184.836L499.048 190.324C499.048 190.324 507.031 174.358 507.031 172.362V177.352C507.031 177.352 512.519 172.861 512.519 169.868L515.513 173.36L517.01 167.872L535.471 173.36L532.477 168.87L543.952 170.367L539.462 164.878C539.462 164.878 552.434 171.364 552.933 176.853C553.432 182.341 556.857 189.495 556.857 189.495L561.009 184.651C561.009 184.651 567.402 161.885 552.933 154.401Z" fill="#2F2E41"/>
<path d="M553.743 186.727C555.081 186.727 556.165 183.939 556.165 180.499C556.165 177.059 555.081 174.271 553.743 174.271C552.406 174.271 551.321 177.059 551.321 180.499C551.321 183.939 552.406 186.727 553.743 186.727Z" fill="#FFB8B8"/>
<path opacity="0.3" d="M159.125 234.234C159.125 234.234 241.009 191.506 297.98 234.234C354.952 276.962 455.79 238.271 455.79 238.271" fill="white"/>
<path d="M307.772 669.021C314.982 669.021 320.828 663.176 320.828 655.965C320.828 648.755 314.982 642.91 307.772 642.91C300.561 642.91 294.716 648.755 294.716 655.965C294.716 663.176 300.561 669.021 307.772 669.021Z" fill="white"/>
</svg>
