<svg width="737" height="704" viewBox="0 0 737 704" fill="none" xmlns="http://www.w3.org/2000/svg">
<g clip-path="url(#clip0)">
<path d="M503.685 659H56.3154C41.6448 659 27.5751 653.171 17.2015 642.795C6.82785 632.419 1 618.346 1 603.673V398.666C1 395.689 1.60635 392.743 2.78203 390.008C3.9577 387.273 5.67806 384.806 7.8382 382.758L244.9 157.995C254.378 149.009 266.94 144 280 144C293.06 144 305.622 149.009 315.1 157.995L541.126 372.295C546.772 377.648 551.269 384.096 554.342 391.245C557.415 398.394 559 406.094 559 413.875V603.673C559 610.938 557.569 618.133 554.789 624.846C552.01 631.558 547.935 637.657 542.799 642.795C537.662 647.933 531.564 652.008 524.853 654.788C518.142 657.569 510.949 659 503.685 659Z" fill="#3F3D56"/>
<path opacity="0.1" d="M1 402H554V625.587C554 634.449 550.483 642.948 544.223 649.214C537.963 655.48 529.473 659 520.62 659H34.3801C25.5272 659 17.0368 655.48 10.7768 649.214C4.51682 642.948 1 634.449 1 625.587V402Z" fill="black"/>
<path d="M454.529 226H103.471C86.6422 226 73 239.642 73 256.471V607.529C73 624.358 86.6422 638 103.471 638H454.529C471.358 638 485 624.358 485 607.529V256.471C485 239.642 471.358 226 454.529 226Z" fill="#276742"/>
<path opacity="0.1" d="M485 411V638H73V411L279 510.819L485 411Z" fill="black"/>
<path d="M279 523.815L15.3522 396.069C13.7215 395.279 11.9173 394.916 10.1088 395.016C8.3003 395.116 6.5467 395.675 5.01239 396.64C3.47809 397.605 2.21332 398.944 1.33662 400.533C0.459923 402.122 1.82444e-06 403.908 0 405.724V625.516C-1.52662e-06 629.913 0.863937 634.267 2.54251 638.33C4.22108 642.392 6.68142 646.083 9.78302 649.193C12.8846 652.302 16.5667 654.768 20.6192 656.451C24.6716 658.134 29.015 659 33.4013 659H524.599C528.985 659 533.328 658.134 537.381 656.451C541.433 654.768 545.115 652.302 548.217 649.193C551.319 646.083 553.779 642.392 555.457 638.33C557.136 634.267 558 629.913 558 625.516V409.489C558 407.273 557.439 405.094 556.369 403.155C555.299 401.216 553.756 399.581 551.884 398.404C550.011 397.226 547.871 396.545 545.665 396.423C543.458 396.301 541.256 396.743 539.266 397.707L279 523.815Z" fill="#3F3D56"/>
<path d="M224 264H109V280H224V264Z" fill="#F2F2F2"/>
<path d="M441 323H99V332H441V323Z" fill="#F2F2F2"/>
<path d="M441 354H99V364H441V354Z" fill="#F2F2F2"/>
<path d="M441 386H99V395H441V386Z" fill="#F2F2F2"/>
<path d="M557.158 96.0939C556.341 103.372 550.789 109.235 548.732 116.264C545.635 126.844 550.989 138.197 558.314 146.437C564.223 153.016 571.38 158.356 579.369 162.148C587.357 165.941 596.02 168.111 604.853 168.531C607.449 168.759 610.063 168.475 612.548 167.693C614.767 166.8 616.765 165.435 618.402 163.693C623.918 158.155 626.879 150.483 628.059 142.757C629.239 135.031 628.78 127.16 628.319 119.359C628.321 117.746 628.028 116.147 627.454 114.639C626.702 113.204 625.669 111.934 624.416 110.905C620.445 107.263 616.071 104.086 611.379 101.436C609.258 100.486 607.388 99.0547 605.916 97.2563C605.029 95.7157 604.456 94.0152 604.228 92.2524L602.787 84.9138C602.53 82.799 601.808 80.7674 600.672 78.965C598.128 75.5332 593.261 75.0662 588.991 74.8988L573.35 74.2853C568.485 74.0945 562.075 72.6995 557.325 73.6549C552.89 74.547 554.363 78.6333 555.169 82.3542C556.337 86.8467 557.004 91.4546 557.158 96.0939Z" fill="#A0616A"/>
<path opacity="0.1" d="M557.158 96.0939C556.341 103.372 550.789 109.235 548.732 116.264C545.635 126.844 550.989 138.197 558.314 146.437C564.223 153.016 571.38 158.356 579.369 162.148C587.357 165.941 596.02 168.111 604.853 168.531C607.449 168.759 610.063 168.475 612.548 167.693C614.767 166.8 616.765 165.435 618.402 163.693C623.918 158.155 626.879 150.483 628.059 142.757C629.239 135.031 628.78 127.16 628.319 119.359C628.321 117.746 628.028 116.147 627.454 114.639C626.702 113.204 625.669 111.934 624.416 110.905C620.445 107.263 616.071 104.086 611.379 101.436C609.258 100.486 607.388 99.0547 605.916 97.2563C605.029 95.7157 604.456 94.0152 604.228 92.2524L602.787 84.9138C602.53 82.799 601.808 80.7674 600.672 78.965C598.128 75.5332 593.261 75.0662 588.991 74.8988L573.35 74.2853C568.485 74.0945 562.075 72.6995 557.325 73.6549C552.89 74.547 554.363 78.6333 555.169 82.3542C556.337 86.8467 557.004 91.4546 557.158 96.0939Z" fill="black"/>
<path d="M656.656 423.693C654.44 447.986 652.224 472.276 650.008 496.561C648.273 515.674 646.505 534.864 643.103 553.73C641.927 560.232 640.551 566.699 638.917 573.111C634.373 590.914 627.781 608.314 625.655 626.565C625.588 627.091 625.532 627.628 625.476 628.165C625.238 632.201 624.474 636.188 623.204 640.026C622.141 642.813 620.507 645.353 619.354 648.105C617.06 653.611 616.758 659.698 616.478 665.662C608.407 661.124 599.573 658.105 590.413 656.755C585.992 656.095 581.068 655.625 578.057 652.324C574.722 648.676 575.092 643.092 575.651 638.191C577.408 622.973 579.162 607.762 580.911 592.559C581.482 586.018 582.594 579.536 584.235 573.178C584.839 571.063 585.567 568.982 586.305 566.901C587.324 564.036 588.353 561.172 589.126 558.229C590.239 553.474 591.016 548.646 591.454 543.782C593.255 528.475 595.427 513.201 597.329 497.904L597.43 497.098C600.284 473.913 602.455 450.616 601.828 427.263C601.739 423.805 601.593 420.347 601.369 416.878C601.056 411.854 600.597 409.191 604.76 406.047C609.36 402.578 615.415 400.15 620.675 397.878C623.506 396.647 654.686 385.58 655.413 388.009C656.876 393.188 657.644 398.539 657.696 403.921C657.718 410.526 657.371 417.127 656.656 423.693Z" fill="#605D82"/>
<path opacity="0.1" d="M643.104 553.73C641.928 560.232 640.552 566.699 638.918 573.111C634.374 590.914 627.782 608.314 625.656 626.565C625.589 627.091 625.533 627.628 625.477 628.165C611.577 608.314 599.871 586.964 586.307 566.901C587.325 564.036 588.355 561.171 589.127 558.229C590.24 553.473 591.018 548.646 591.455 543.782C593.257 528.475 595.428 513.201 597.33 497.904L597.431 497.098C598.227 500.346 599.364 503.5 600.822 506.509C609.932 525.017 631.576 534.372 642.164 552.085C642.488 552.634 642.801 553.182 643.104 553.73Z" fill="black"/>
<path d="M530.315 390.985C530.774 405.829 533.15 420.54 535.522 435.201L540.415 465.45C543.094 482.005 545.882 498.897 553.717 513.725C559.579 524.818 568.024 534.283 575.664 544.234C594.446 568.699 608.555 596.412 626.364 621.594C631.541 628.913 638.94 636.829 647.775 635.3C653.573 634.297 657.784 629.471 662.342 625.749C667.715 621.362 674.191 618.151 678.419 612.652C682.647 607.152 683.475 598.011 677.747 594.098C675.675 592.95 673.474 592.049 671.191 591.415C662.312 588.039 656.565 579.369 652.908 570.603C649.251 561.836 647.035 552.41 642.162 544.256C631.576 526.543 609.929 517.189 600.817 498.674C595.713 488.304 595.227 476.352 594.836 464.801L593.842 435.357C593.733 432.137 593.648 428.788 594.957 425.844C598.443 418.006 608.967 417.276 617.488 416.282C627.159 415.149 636.528 412.194 645.099 407.572C650.007 404.922 654.802 401.544 657.428 396.624C659.823 392.135 660.154 386.869 660.435 381.789L663.385 328.427C663.639 323.836 663.871 319.089 662.252 314.785C658.189 303.978 644.54 300.447 633.005 300.963C611.538 301.922 591.722 311.155 571.482 317.39C566.469 318.971 561.379 320.298 556.232 321.367C551.69 322.278 546.192 321.9 541.86 323.36C534.155 325.957 534.351 342.804 533.258 349.792C531.002 363.402 530.017 377.192 530.315 390.985Z" fill="#605D82"/>
<path d="M644.859 637.538C646.752 639.447 647.371 642.243 647.864 644.885C650.598 659.542 652.02 674.413 652.114 689.323C651.987 690.714 652.265 692.112 652.914 693.349C653.447 694.087 654.169 694.668 655.004 695.029C660.475 697.636 666.825 694.003 671.384 690.01C679.835 682.608 686.986 672.673 687.466 661.45C687.378 658.56 687.479 655.666 687.769 652.789C688.511 648.564 690.979 644.883 693.153 641.184C696.853 634.889 699.838 628.2 702.051 621.241C702.882 618.627 703.435 615.335 701.386 613.511C700.66 612.942 699.834 612.512 698.951 612.245L674.237 603.07C672.096 602.275 666.767 615.962 665.921 617.458C663.852 621.118 661.795 623.196 657.644 624.041C653.407 624.903 648.363 623.666 644.41 625.779C637.722 629.355 641.073 633.72 644.859 637.538Z" fill="#535070"/>
<path d="M606.727 645.984C606.268 645.07 605.628 644.259 604.846 643.599C603.702 642.874 602.401 642.432 601.052 642.311C596.347 641.512 590.771 640.986 587.523 644.482C584.479 647.761 585.002 653.101 582.457 656.78C581.651 657.944 580.56 658.904 579.861 660.136C578.994 662.019 578.603 664.087 578.722 666.156C578.591 671.859 578.46 677.571 578.854 683.261C579.184 688.03 579.988 693.026 582.97 696.762C587.757 702.758 596.39 703.62 604.053 704.009L610.259 704.324C611.969 704.532 613.703 704.373 615.346 703.858C616.363 703.388 617.275 702.719 618.029 701.89C618.782 701.061 619.362 700.089 619.733 699.032C622.963 691.003 617.847 682.354 614.696 674.294C611.073 665.03 611.724 654.743 606.727 645.984Z" fill="#535070"/>
<path d="M555.359 55.0839C555.283 54.27 555.403 53.4497 555.708 52.6914C556.617 51.0843 558.991 51.5217 560.781 51.9731C567.982 53.7882 575.57 52.1452 582.984 52.5692C590.398 52.9933 598.749 56.6992 600.24 63.973C605.621 60.1586 610.26 55.3929 613.928 49.9109C615.985 46.8321 617.779 43.3057 617.499 39.6134C617.095 34.2878 612.626 30.3049 608.488 26.9275L596.153 16.8593C594.534 15.3717 592.664 14.183 590.63 13.3486C587.782 12.3753 584.676 12.839 581.666 12.841C572.687 12.8467 563.113 8.76101 555.128 12.8653C551.792 14.5798 549.281 17.5178 546.861 20.3825L535.852 33.4124C535.023 34.2428 534.418 35.2692 534.092 36.3961C533.779 37.9866 534.596 39.5562 534.881 41.152C535.401 44.0628 534.147 47.1695 535.111 49.9649C536.711 54.6056 542.347 55.2625 545.792 57.923C547.076 58.9146 549.088 62.275 550.618 62.234C553.379 62.16 555.288 57.2283 555.359 55.0839Z" fill="#3F3D56"/>
<path d="M574.041 93.4919C593.511 93.4919 609.295 77.7108 609.295 58.2439C609.295 38.7769 593.511 22.9958 574.041 22.9958C554.572 22.9958 538.788 38.7769 538.788 58.2439C538.788 77.7108 554.572 93.4919 574.041 93.4919Z" fill="#A0616A"/>
<path d="M582.297 135.385C581.101 131.959 578.845 129.004 575.856 126.947C572.866 124.89 569.299 123.839 565.672 123.945C564.634 124.139 563.562 124.003 562.605 123.558C562.064 123.142 561.632 122.601 561.345 121.982C559.201 118.128 557.478 114.055 556.205 109.832C555.642 107.967 554.873 105.767 552.986 105.282C552.204 105.18 551.409 105.292 550.687 105.606C549.964 105.921 549.34 106.425 548.882 107.067C547.986 108.358 547.006 109.589 545.949 110.752C541.515 114.716 533.656 111.103 528.95 114.74C528.181 115.334 527.547 116.095 526.739 116.635C525.931 117.122 525.061 117.495 524.151 117.745C515.064 120.711 506.155 124.2 497.47 128.193C500.6 147.042 503.808 166.219 511.145 183.862C514.637 192.257 518.594 200.48 521.39 209.132C527.586 228.303 527.86 248.815 527.93 268.961C527.977 282.75 527.909 296.833 523.447 309.88C522.247 312.763 521.401 315.781 520.927 318.868C520.658 321.977 521.563 325.405 524.083 327.247C525.543 328.202 527.214 328.789 528.951 328.957C536.682 330.091 544.476 328.034 552.088 326.271C572.492 321.547 593.301 318.844 614.07 316.147L648.872 311.629C651.367 311.46 653.808 310.829 656.073 309.768C662.441 306.282 663.046 296.704 659.091 290.616C657.195 287.697 654.52 285.303 652.927 282.209C651.334 279.114 651.198 274.787 653.941 272.644C659.519 268.284 657.855 260.196 658.121 253.122C658.865 233.341 658.764 213.552 657.819 193.756C657.54 189.658 657.474 185.549 657.623 181.444C658.241 174.488 659.527 167.608 661.461 160.899L672.036 119.267C669.273 114.902 663.984 112.133 658.973 110.875C653.962 109.618 648.744 109.248 643.809 107.719C633.699 104.587 624.699 96.6385 614.142 97.3793C613.343 97.3936 612.558 97.5854 611.842 97.9407C609.461 99.2894 609.838 102.72 609.686 105.452C609.349 111.497 604.903 116.549 599.992 120.091C595.082 123.633 589.474 126.215 584.964 130.255C584.165 130.857 583.511 131.63 583.049 132.518C582.588 133.405 582.331 134.385 582.297 135.385Z" fill="#3F3D56"/>
<path d="M442.611 174.874C440.273 176.39 437.789 177.668 435.196 178.689C432.656 179.444 430.257 180.608 428.092 182.135C427.095 182.998 426.258 184.031 425.622 185.187C424.429 187.303 423.825 189.7 423.875 192.129C423.924 194.557 424.625 196.928 425.903 198.994C427.182 201.059 428.992 202.744 431.144 203.871C433.296 204.999 435.711 205.529 438.137 205.404C441.362 205.043 444.496 204.109 447.392 202.646L472.257 191.873C476.465 190.049 481.011 187.912 483 183.78C483.232 183.395 483.318 182.939 483.242 182.496C483.042 182.027 482.679 181.646 482.221 181.422C476.613 177.78 471.708 173.156 467.743 167.772C466.723 166.387 465.474 163.117 464.032 162.287C458.769 159.256 446.823 172.14 442.611 174.874Z" fill="#A0616A"/>
<path d="M708.427 166.034L717.594 176.504C719.562 178.752 721.532 181.002 723.326 183.391C727.731 189.461 731.265 196.118 733.825 203.168C735.818 208.396 737.471 213.965 736.775 219.516C736.313 222.362 735.544 225.149 734.482 227.83C732.802 232.985 730.719 238.001 728.253 242.83C726.179 246.499 723.836 250.01 721.244 253.333C714.146 262.739 706.38 271.621 698.005 279.91C694.871 283.012 693.557 288.028 692.193 292.221C689.676 299.954 683.689 305.978 677.899 311.69C676.038 313.655 673.981 315.424 671.761 316.971C668.435 319.113 664.547 320.22 660.591 320.151C658.86 320.163 657.145 319.809 655.56 319.11C651.598 317.229 649.584 312.648 649.171 308.281C648.803 304.319 649.467 300.329 651.099 296.699C656.359 285.048 669.868 279.999 679.416 271.498C685.015 266.513 689.297 260.252 693.52 254.058C696.388 250.191 698.783 245.994 700.653 241.557C702.785 235.869 701.955 229.134 703.818 223.351C704.605 220.906 706.005 218.699 706.852 216.275C707.699 213.85 707.912 210.972 706.431 208.874C705.313 207.541 703.889 206.498 702.28 205.836C696.181 202.741 689.349 198.757 688.182 192.018C687.716 188.281 688.693 184.507 690.913 181.464C693.125 178.462 695.709 175.754 698.605 173.404C701.272 171.045 705.759 168.392 708.427 166.034Z" fill="#A0616A"/>
<path d="M436.727 189.489C435.108 186.22 433.084 182.884 429.818 181.259C428.235 180.571 426.528 180.213 424.801 180.206C423.075 180.199 421.365 180.543 419.776 181.217C416.609 182.582 413.643 184.375 410.963 186.545L403.061 192.369C401.27 193.544 399.685 195.007 398.37 196.698C397.124 198.75 396.293 201.028 395.927 203.401C394.55 208.812 394.129 214.423 394.685 219.979C395.939 228.889 401.311 236.666 407.224 243.448C410.919 247.686 415.481 251.962 421.1 252.143C423.526 252.221 426.224 251.265 427.233 249.058C427.583 248.183 427.768 247.251 427.781 246.309C428.388 236.372 424.833 226.665 420.687 217.614C419.365 215.243 418.584 212.61 418.399 209.903C418.37 209.447 418.488 208.994 418.737 208.611C419.095 208.239 419.573 208.006 420.086 207.953C425.761 206.83 435.535 211.238 439.515 204.937C442.096 200.853 438.561 193.193 436.727 189.489Z" fill="#A0616A"/>
<path d="M553.513 43.9926C553.437 43.1787 553.556 42.3584 553.862 41.6001C554.771 39.993 557.144 40.4304 558.935 40.8817C566.136 42.6969 573.723 41.0539 581.137 41.4779C588.551 41.902 596.902 45.6078 598.393 52.8817C603.775 49.0672 608.413 44.3016 612.081 38.8196C614.139 35.7408 615.932 32.2143 615.652 28.522C615.248 23.1965 610.779 19.2136 606.641 15.8361L594.306 5.76801C592.688 4.28038 590.818 3.09172 588.784 2.25727C585.935 1.28404 582.829 1.74771 579.819 1.74964C570.84 1.75541 561.267 -2.33029 553.281 1.77401C549.945 3.48847 547.434 6.42648 545.014 9.29124L534.005 22.3211C533.176 23.1515 532.571 24.1779 532.245 25.3048C531.932 26.8953 532.749 28.4649 533.034 30.0607C533.554 32.9715 532.3 36.0782 533.264 38.8736C534.864 43.5143 540.5 44.1712 543.945 46.8317C545.229 47.8233 547.242 51.1837 548.772 51.1427C551.532 51.0687 553.441 46.1369 553.513 43.9926Z" fill="#3F3D56"/>
<path d="M478.637 140.589C477.214 141.506 475.965 142.669 474.947 144.023C473.655 145.977 473.392 148.444 472.282 150.507C469.906 154.921 464.349 156.491 460.882 160.113C460.331 160.611 459.949 161.267 459.787 161.992C459.77 162.975 460.1 163.932 460.718 164.696L477.435 190.973C483.001 191.463 488.341 187.977 493.909 188.439C495.988 188.612 498.116 189.33 500.11 188.716C501.537 188.083 502.875 187.265 504.088 186.283C507.41 184.183 511.835 183.938 514.622 181.167C517.297 178.508 517.638 174.347 517.606 170.576C517.651 167.301 517.318 164.031 516.613 160.833C514.151 150.747 506.436 143.007 501.6 134.072C499.245 129.723 497.964 127.176 492.98 130.163C487.97 133.165 483.352 137.141 478.637 140.589Z" fill="#3F3D56"/>
<path d="M681.663 127.3C684.805 129.34 687.637 131.82 690.073 134.666C692.62 137.949 694.062 141.967 696.509 145.326C698.88 148.581 702.108 151.103 704.797 154.1C708.877 158.647 711.639 164.193 714.352 169.665C707.726 178.307 700.5 186.472 692.728 194.101C691.863 195.12 690.724 195.869 689.445 196.259C688.575 196.352 687.696 196.227 686.886 195.897C686.076 195.567 685.36 195.041 684.803 194.367C683.599 193.104 682.746 191.547 681.595 190.236C678.878 187.434 675.258 185.683 671.375 185.294C667.526 184.922 663.652 184.868 659.795 185.134C658.948 185.228 658.091 185.085 657.322 184.719C656.749 184.324 656.285 183.792 655.972 183.171C651.446 175.47 652.902 165.802 654.499 157.014L658.163 136.849C658.694 132.998 659.719 129.231 661.213 125.641C662.6 122.676 665.704 117.647 669.52 118.535C673.366 119.43 678.427 124.973 681.663 127.3Z" fill="#3F3D56"/>
</g>
<defs>
<clipPath id="clip0">
<rect width="737" height="704" fill="white"/>
</clipPath>
</defs>
</svg>
