<svg width="24" height="24" viewBox="0 0 24 24" fill="none" xmlns="http://www.w3.org/2000/svg">
<path d="M18.893 0.671901V0.669421C18.467 0.241178 17.888 0.000247934 17.2839 0H6.71451C5.45916 0.00409091 4.44257 1.02068 4.43848 2.27603V21.7215C4.43872 22.3255 4.67965 22.9046 5.1079 23.3306C5.53329 23.7582 6.11135 23.9991 6.71451 24H17.2864C17.8896 23.9991 18.4676 23.7582 18.893 23.3306C19.3206 22.9052 19.5615 22.3271 19.5624 21.724V2.27851C19.5615 1.67535 19.3206 1.09729 18.893 0.671901ZM12.0005 22.4554C11.6609 22.4554 11.3856 22.1801 11.3856 21.8405C11.3856 21.5009 11.6609 21.2256 12.0005 21.2256C12.3401 21.2256 12.6153 21.5009 12.6153 21.8405C12.6153 22.1801 12.3401 22.4554 12.0005 22.4554ZM17.755 18.595C17.755 19.4166 17.089 20.0826 16.2674 20.0826H7.73104C6.90945 20.0826 6.24344 19.4166 6.24344 18.595V4.10331C6.24344 3.28171 6.90945 2.6157 7.73104 2.6157H16.2699C17.0915 2.6157 17.7575 3.28171 17.7575 4.10331L17.755 18.595Z" fill="white"/>
</svg>
