<?xml version="1.0" encoding="utf-8"?>
<svg xmlns="http://www.w3.org/2000/svg" xmlns:xlink="http://www.w3.org/1999/xlink" style="margin: auto; background: none; display: block; shape-rendering: auto;" width="200px" height="200px" viewBox="0 0 100 100" preserveAspectRatio="xMidYMid">
<g transform="rotate(0 50 50)">
  <rect x="48.5" y="26.5" rx="0.5700000000000001" ry="0.5700000000000001" width="3" height="3" fill="#408a60">
    <animate attributeName="opacity" values="1;0" keyTimes="0;1" dur="0.4672897196261683s" begin="-0.4248088360237894s" repeatCount="indefinite"></animate>
  </rect>
</g><g transform="rotate(32.72727272727273 50 50)">
  <rect x="48.5" y="26.5" rx="0.5700000000000001" ry="0.5700000000000001" width="3" height="3" fill="#408a60">
    <animate attributeName="opacity" values="1;0" keyTimes="0;1" dur="0.4672897196261683s" begin="-0.38232795242141043s" repeatCount="indefinite"></animate>
  </rect>
</g><g transform="rotate(65.45454545454545 50 50)">
  <rect x="48.5" y="26.5" rx="0.5700000000000001" ry="0.5700000000000001" width="3" height="3" fill="#408a60">
    <animate attributeName="opacity" values="1;0" keyTimes="0;1" dur="0.4672897196261683s" begin="-0.3398470688190315s" repeatCount="indefinite"></animate>
  </rect>
</g><g transform="rotate(98.18181818181819 50 50)">
  <rect x="48.5" y="26.5" rx="0.5700000000000001" ry="0.5700000000000001" width="3" height="3" fill="#408a60">
    <animate attributeName="opacity" values="1;0" keyTimes="0;1" dur="0.4672897196261683s" begin="-0.29736618521665253s" repeatCount="indefinite"></animate>
  </rect>
</g><g transform="rotate(130.9090909090909 50 50)">
  <rect x="48.5" y="26.5" rx="0.5700000000000001" ry="0.5700000000000001" width="3" height="3" fill="#408a60">
    <animate attributeName="opacity" values="1;0" keyTimes="0;1" dur="0.4672897196261683s" begin="-0.25488530161427364s" repeatCount="indefinite"></animate>
  </rect>
</g><g transform="rotate(163.63636363636363 50 50)">
  <rect x="48.5" y="26.5" rx="0.5700000000000001" ry="0.5700000000000001" width="3" height="3" fill="#408a60">
    <animate attributeName="opacity" values="1;0" keyTimes="0;1" dur="0.4672897196261683s" begin="-0.2124044180118947s" repeatCount="indefinite"></animate>
  </rect>
</g><g transform="rotate(196.36363636363637 50 50)">
  <rect x="48.5" y="26.5" rx="0.5700000000000001" ry="0.5700000000000001" width="3" height="3" fill="#408a60">
    <animate attributeName="opacity" values="1;0" keyTimes="0;1" dur="0.4672897196261683s" begin="-0.16992353440951574s" repeatCount="indefinite"></animate>
  </rect>
</g><g transform="rotate(229.0909090909091 50 50)">
  <rect x="48.5" y="26.5" rx="0.5700000000000001" ry="0.5700000000000001" width="3" height="3" fill="#408a60">
    <animate attributeName="opacity" values="1;0" keyTimes="0;1" dur="0.4672897196261683s" begin="-0.12744265080713682s" repeatCount="indefinite"></animate>
  </rect>
</g><g transform="rotate(261.8181818181818 50 50)">
  <rect x="48.5" y="26.5" rx="0.5700000000000001" ry="0.5700000000000001" width="3" height="3" fill="#408a60">
    <animate attributeName="opacity" values="1;0" keyTimes="0;1" dur="0.4672897196261683s" begin="-0.08496176720475787s" repeatCount="indefinite"></animate>
  </rect>
</g><g transform="rotate(294.54545454545456 50 50)">
  <rect x="48.5" y="26.5" rx="0.5700000000000001" ry="0.5700000000000001" width="3" height="3" fill="#408a60">
    <animate attributeName="opacity" values="1;0" keyTimes="0;1" dur="0.4672897196261683s" begin="-0.042480883602378935s" repeatCount="indefinite"></animate>
  </rect>
</g><g transform="rotate(327.27272727272725 50 50)">
  <rect x="48.5" y="26.5" rx="0.5700000000000001" ry="0.5700000000000001" width="3" height="3" fill="#408a60">
    <animate attributeName="opacity" values="1;0" keyTimes="0;1" dur="0.4672897196261683s" begin="0s" repeatCount="indefinite"></animate>
  </rect>
</g>
<!-- [ldio] generated by https://loading.io/ --></svg>